<svg width="218" height="30" viewBox="0 0 218 30" fill="none" xmlns="http://www.w3.org/2000/svg">
<path d="M15.64 7.12C15.64 4.39999 15.16 2.91998 13.76 1.75998C12.44 0.679979 10.44 0 7.88 0C4.68001 0 2.56 1 1.48 2.16C0.0400033 3.68 0 5.8 0 7V22.8C0 26.4 1.56 29.44 7.92 29.44C9.8 29.44 12.44 29.2 14.12 27.44C15.24 26.32 15.64 24.88 15.64 22.8V7.12ZM10.4 22.04C10.4 23.4 10.4 25.36 7.84 25.36C5.28 25.36 5.2 23.52 5.2 21.92V7.67999C5.2 6.11999 5.2 3.95999 7.88 3.95999C10.4 3.95999 10.4 5.99998 10.4 7.47998V22.04Z" fill="white"/>
<path d="M20.3406 28.84H25.5806V17.08H29.9806C35.1006 17.08 35.5806 15.2 35.5806 10.64V6.95999C35.5806 4.27999 35.5806 0.559998 30.8206 0.559998H20.3406V28.84ZM25.5806 4.75998H28.1406C30.4606 4.75998 30.4606 5.71998 30.4606 7.63998V10.52C30.4606 12.68 30.0606 13.04 28.1006 13.04H25.5806V4.75998Z" fill="white"/>
<path d="M39.5594 28.84H53.5994V24.48H44.7594V15.8H52.7194V11.52H44.7594V4.88H53.2394V0.559998H39.5594V28.84Z" fill="white"/>
<path d="M73.9969 0.600006H69.2369L69.7569 21.32L64.6769 0.600006H57.9969V28.84H62.8769L62.3969 7.67999L67.4369 28.84H73.9969V0.600006Z" fill="white"/>
<path d="M87.9969 28.84H96.3569C102.917 28.84 103.517 25.16 103.517 21.24V8.03998C103.517 5.79998 103.317 3.87999 101.837 2.35999C100.117 0.599985 98.0769 0.600006 96.3969 0.600006H87.9969V28.84ZM93.1969 4.72H95.2369C97.5169 4.72 98.3569 5.08001 98.3569 7.60001V21.68C98.3569 22.72 98.3569 24.36 96.4769 24.64C96.0369 24.72 95.6369 24.72 93.1969 24.72V4.72Z" fill="white"/>
<path d="M105.772 28.84H110.972L111.732 24.24H116.532L117.212 28.84H122.492L117.212 0.600006H111.252L105.772 28.84ZM114.252 7.75998L115.972 19.88H112.372L114.252 7.75998Z" fill="white"/>
<path d="M122.343 4.67999H127.543V28.84H132.783V4.67999H137.983V0.600006H122.343V4.67999Z" fill="white"/>
<path d="M137.781 28.84H142.981L143.741 24.24H148.541L149.221 28.84H154.501L149.221 0.600006H143.261L137.781 28.84ZM146.261 7.75998L147.981 19.88H144.381L146.261 7.75998Z" fill="white"/>
<path d="M166.881 28.84H179.721V24.56H172.041V0.600006H166.881V28.84Z" fill="white"/>
<path d="M182.141 28.84H187.341L188.101 24.24H192.901L193.581 28.84H198.861L193.581 0.600006H187.621L182.141 28.84ZM190.621 7.75998L192.341 19.88H188.741L190.621 7.75998Z" fill="white"/>
<path d="M202.1 28.84H211.02C213.06 28.84 214.5 28.68 215.58 27.96C217.5 26.68 217.5 24.32 217.5 22.8V18.8C217.5 15.76 217.26 14.28 213.9 13.64C215.9 13.24 217.22 12.56 217.22 8.88V6.35999C217.22 4.43999 216.98 2.6 215.18 1.44C214.06 0.720002 212.86 0.600006 210.86 0.600006H202.1V28.84ZM207.3 4.63998H209.38C210.7 4.63998 211.54 4.87999 211.86 5.79999C212.06 6.27999 212.06 6.52 212.06 9.16C212.06 10.6 211.7 11.44 210.66 11.68C210.22 11.76 209.62 11.76 207.3 11.76V4.63998ZM207.3 15.84H209.54C211.74 15.84 212.42 16.28 212.42 18.6V21.92C212.42 24.52 211.62 24.76 209.46 24.76H207.3V15.84Z" fill="white"/>
</svg>
